<svg xmlns="http://www.w3.org/2000/svg" width="229.695" height="85.77" viewBox="0 0 229.695 85.77">
  <path id="路径_59" data-name="路径 59" d="M-95.13,2.07a8.764,8.764,0,0,0,3.06.54c1.98,0,4.23-.72,7.2-2.07,5.31-2.61,10.44-6.75,19.53-15.75,5.13-4.95,5.67-5.76,4.32-6.3-.27-.09-1.89,1.35-3.78,3.24C-69.3-13.95-75.78-8.19-79.47-5.4-84.42-1.62-89.73.45-93.42.45c-2.16,0-3.78-.63-4.59-2.07-1.17-1.89-1.8-5.4-1.44-9.27.63-13.68,9.54-30.06,19.26-39.42,5.4-5.13,9.54-7.74,12.96-7.74l1.71-.18v2.16c0,3.51-1.71,8.01-5.22,13.14-1.8,2.88-5.31,6.57-6.48,6.84-.72.36-.72.81,0,1.8a2.254,2.254,0,0,0,1.62.72,4.043,4.043,0,0,0,2.25-.9c5.31-3.06,10.44-10.71,11.52-17.64a9.774,9.774,0,0,0-4.14-9.9c-1.08-.81-1.62-.99-3.51-.99-4.86,0-10.98,5.31-14.31,8.46-13.23,13.23-22.05,35.82-18.54,47.79C-101.07-2.43-98.19,1.26-95.13,2.07Zm64.89-22.68c-.09-.36-.27-.45-.45-.45a2.183,2.183,0,0,0-1.08.45,66.412,66.412,0,0,1-8.73,2.79l-1.26.27.36-1.08c.81-4.23.27-6.57-1.98-8.55a4.668,4.668,0,0,0-3.15-1.53,4.556,4.556,0,0,0-3.06,1.44,7.853,7.853,0,0,0-1.8,2.07c-.27.81-.81,1.08-1.08,1.08a2.917,2.917,0,0,0-1.62,1.17c-2.07,1.89-3.51,6.03-3.51,9.63A7.913,7.913,0,0,0-54.09-6.3a5.461,5.461,0,0,0,2.7.81,4.29,4.29,0,0,0,1.8-.36c1.8-.9,4.5-4.5,6.21-7.83.72-1.44.99-1.62,2.16-1.89,3.33-.54,11.52-3.6,11.52-4.23Q-29.7-20.07-30.24-20.61Zm-13.77-5.13-.27,1.62a17.475,17.475,0,0,1-1.17,4.14,6.427,6.427,0,0,1-1.26,2.61s-.63-.18-1.08-.36c-1.53-.45-2.16-1.26-2.16-2.25.18-.54.27-.63.72-.63h.45c1.26,0,1.44-.45.45-1.53-.45-.72-.45-.81,0-1.53.99-1.08,2.43-2.07,3.42-2.07ZM-47.7-15.57l-.81,1.08a20.89,20.89,0,0,1-1.89,2.25,11.617,11.617,0,0,1-1.89,1.8l-.99.63.36-2.25c.09-2.25,1.26-6.3,1.71-6.3.18,0,.45.36.81.63a8.41,8.41,0,0,0,1.62,1.44ZM6.75-18.63a.778.778,0,0,0-.54-.27c-.36,0-.81.45-2.25,1.62-1.26.9-4.32,3.69-6.84,5.85-5.31,4.68-7.11,5.85-8.55,5.85-.9,0-1.08,0-1.26-1.44-.63-4.05,1.17-10.98,5.13-21.06,1.44-3.69,2.7-7.02,2.7-7.38,0-.9-1.08-2.52-1.89-2.52s-3.51,1.89-5.94,4.14c-2.7,2.61-5.76,6.39-10.26,12.69-3.15,4.5-7.65,10.26-8.46,10.53-.54.36-.18-.81,1.26-5.4.81-2.07,1.8-4.68,2.25-5.67.63-1.26.99-1.62,1.35-1.62.09,0,.18.09.27.09h.27c.36,0,.36-.18.18-.72-.27-.9-2.25-2.88-2.88-2.88-2.07,0-7.02,10.8-7.56,16.38,0,1.98,0,2.43.63,3.42a4.118,4.118,0,0,0,3.87,2.07c.81-.18,2.25-1.98,7.56-9.45A155.423,155.423,0,0,1-11.43-30.15l3.42-3.51-1.62,3.33c-3.87,7.74-5.49,13.5-5.58,18.81,0,4.32.81,6.03,3.15,7.65a3.73,3.73,0,0,0,1.8.54c3.78,0,17.64-13.95,17.64-14.31A3.4,3.4,0,0,0,6.75-18.63Zm25.56-2.43a.822.822,0,0,0-.45-.27c-.27,0-.45.18-.81.63a45.7,45.7,0,0,1-3.69,2.88C19.71-12.06,11.61-7.74,7.29-7.11l-1.44.36.36-1.8c.45-5.13,4.68-12.69,8.19-15.39a2.579,2.579,0,0,1,1.26-.63c.45,0,.54.54.81,2.07.18,1.17,1.44,2.7,1.89,2.43a6.14,6.14,0,0,0,.54-2.07c.09-3.06-1.98-6.3-4.5-6.93a1.532,1.532,0,0,0-.63-.09c-4.59,0-11.61,10.71-11.61,18.18,0,3.78,2.52,7.74,6.57,7.74,2.16,0,4.77-1.35,10.17-4.95,7.47-5.13,14.04-10.62,14.04-11.88A1.221,1.221,0,0,0,32.31-21.06Zm22.41,2.07-.63-.63-1.62.99C48.78-15.93,37.26-9.99,34.2-9a13.312,13.312,0,0,1-2.88.45c-1.44,0-1.44-.18-1.17-2.52.18-.9.27-1.26.72-1.26.18,0,.27.09.45.09a4.21,4.21,0,0,0,1.44.18c1.53,0,2.97-.81,5.31-2.88,3.33-3.42,4.32-5.76,3.33-8.01a4.967,4.967,0,0,0-4.41-2.61,6.765,6.765,0,0,0-3.33.99c-4.77,2.7-8.1,9.63-6.84,14.31.81,2.7,3.6,5.22,6.48,5.22,1.53,0,3.42-.63,6.21-1.89,6.21-3.24,15.84-9.63,15.84-10.71A4.336,4.336,0,0,0,54.72-18.99ZM35.64-20.25a7.916,7.916,0,0,1,3.24-1.98.331.331,0,0,1,.27.09c.18.09,0,.81-.45,1.53a15.574,15.574,0,0,1-5.31,5.85c-.99.45-1.8.81-1.89.81C30.51-13.95,33.03-18,35.64-20.25Zm51.03,3.87c-.72-1.26-2.07-1.26-3.33-1.26a33.229,33.229,0,0,0-7.38,1.08c-1.44.45-2.79.81-2.88.81a11.959,11.959,0,0,1,.45-1.98,13.825,13.825,0,0,0,.45-8.01c-.63-2.25-1.71-3.78-2.88-3.78-3.15,0-9.63,12.15-17.01,31.59a91.5,91.5,0,0,1-3.69,9.09l-.9,2.07.09-1.89c.99-8.1,5.22-27.99,9.54-34.29.63-1.17.72-1.35,1.26-1.35h.45a2.027,2.027,0,0,0,.63.09c.63,0,.63-.45-.18-1.53a7.756,7.756,0,0,0-3.69-2.25c-1.08,0-2.88,2.16-4.59,5.94-4.86,9.63-9,27.45-9,37.35,0,4.41.45,5.49,2.25,6.75a3.837,3.837,0,0,0,1.89.72,1.584,1.584,0,0,0,1.17-.54c1.08-1.26,4.32-9.63,6.84-18.27C60.66-10.8,67.77-25.11,71.28-27a.979.979,0,0,1,.45-.09c.36,0,.27.45,0,2.16a22.551,22.551,0,0,1-6.57,14.31c-2.88,2.7-4.5,4.95-4.5,6.21a2.782,2.782,0,0,0,2.16,2.43c.72,0,5.13-4.32,6.66-7.02a6.63,6.63,0,0,1,3.42-3.24,20.859,20.859,0,0,1,10.71-2.88c1.89-.18,3.42-.18,3.42-.36C86.94-15.57,86.85-16.11,86.67-16.38Zm37.8-31.23c-3.06-1.44-6.48-2.07-11.7-2.07a50.746,50.746,0,0,0-12.24,1.62c-1.26.27-2.52.45-2.52.45-.18-.18.27-1.44.81-3.06.72-2.07,1.26-2.97,1.53-2.97.54,0,.54-.36.63-1.8,0-1.8,0-2.07-.9-2.7a8.244,8.244,0,0,0-1.26-.99c-.81,0-2.61,3.24-5.04,9.09a41.951,41.951,0,0,1-1.89,4.41c-2.7,1.35-10.71,3.6-13.59,3.6-3.51,0-4.95-1.71-4.68-4.95a6.243,6.243,0,0,1,.45-2.34c.54-.72.36-.81-.18-1.35-.18-.18-.36-.36-.45-.36s-.27.18-.63.54c-1.62,1.44-1.17,5.58,1.08,8.01,1.62,1.8,3.24,2.43,5.94,2.43,2.61,0,3.6-.18,8.01-1.62,1.44-.45,2.79-.81,2.79-.63.09,0-.36,1.26-.81,2.88-3.6,9.99-7.11,22.59-7.11,33.21,0,6.21.72,8.46,3.24,10.26a4.119,4.119,0,0,0,2.16.72A4.379,4.379,0,0,0,90.9,3.6c2.88-2.43,12.06-12.69,13.14-14.76.18-.72.18-.99-.27-1.35-.36-.09-.63-.45-.81-.45a5.915,5.915,0,0,0-1.44,1.8C100.17-9.36,89.28,1.98,87.48,1.98c-.09,0-.18-.09-.27-.18-.9-1.44.36-12.69,2.79-23.13,2.07-9.09,6.21-22.86,7.2-23.4a98.7,98.7,0,0,1,11.52-2.52,34.683,34.683,0,0,1,4.32-.18c4.86,0,9.54.72,12.06,1.89.54.36.9.63,1.17.63q.135,0,.27-.27C126.81-45.81,126-46.8,124.47-47.61Z" transform="translate(103.104 63)" fill="#7b491a"/>
</svg>
