<svg xmlns="http://www.w3.org/2000/svg" width="127.942" height="63.796" viewBox="0 0 127.942 63.796">
  <path id="路径_63" data-name="路径 63" d="M-58.425-1.066a4.346,4.346,0,0,0,2.214.656A1.614,1.614,0,0,0-54.9-.9c.246-.41.246-.574-.328-.984a3.24,3.24,0,0,0-.984-.656c-.656,0-.9-1.722-.9-6.724.164-7.954,1.886-16.728,5.822-27.552,2.624-7.216,7.626-17.794,8.2-17.794.082,0,.082.164,0,.574,0,.574-.41,3.034-.9,5.822-1.886,13.284-1.558,24.272.738,30.832.9,1.968,2.87,4.51,5.248,4.51,2.214,0,3.936-2.788,9.84-14.432,4.1-7.954,9.758-18.45,10.168-18.45a23.722,23.722,0,0,1-.738,2.788A125.727,125.727,0,0,0-22.1-29.684C-24.231-17.138-25.3.984-23.821,2.132a3.52,3.52,0,0,0,1.148.328c.738,0,.738,0,.574-1.722-.246-2.214.164-7.79,1.23-16.072a214.535,214.535,0,0,1,4.92-27.06c2.05-7.872,2.05-7.626,1.476-8.446a1.7,1.7,0,0,0-1.312-.9A2.126,2.126,0,0,0-17.261-51c-2.46,2.3-7.3,10.5-12.956,21.894-2.214,4.674-4.592,9.348-5.248,10.5-1.312,2.378-2.952,4.1-3.526,4.1s-1.476-1.886-2.05-4.51c-.574-2.788-.9-13.694-.41-18.86.082-2.132.656-6.724,1.148-10.086,1.476-10.5,1.476-10.5-.492-12.218a3.139,3.139,0,0,0-1.968-1.148c-4.018,0-12.054,21.4-13.2,24.764-3.526,10.086-5.084,18.286-5.084,25.42C-61.213-5.166-60.475-2.378-58.425-1.066ZM10.947-18.778c-.082-.328-.246-.41-.41-.41a1.989,1.989,0,0,0-.984.41A60.509,60.509,0,0,1,1.6-16.236L.451-15.99l.328-.984c.738-3.854.246-5.986-1.8-7.79a4.253,4.253,0,0,0-2.87-1.394,4.151,4.151,0,0,0-2.788,1.312,7.155,7.155,0,0,0-1.64,1.886c-.246.738-.738.984-.984.984a2.658,2.658,0,0,0-1.476,1.066c-1.886,1.722-3.2,5.494-3.2,8.774a7.21,7.21,0,0,0,3.2,6.4A4.976,4.976,0,0,0-8.323-5a3.909,3.909,0,0,0,1.64-.328c1.64-.82,4.1-4.1,5.658-7.134.656-1.312.9-1.476,1.968-1.722,3.034-.492,10.5-3.28,10.5-3.854Q11.439-18.286,10.947-18.778ZM-1.6-23.452l-.246,1.476A15.921,15.921,0,0,1-2.911-18.2a5.856,5.856,0,0,1-1.148,2.378s-.574-.164-.984-.328c-1.394-.41-1.968-1.148-1.968-2.05.164-.492.246-.574.656-.574h.41c1.148,0,1.312-.41.41-1.394-.41-.656-.41-.738,0-1.394a5.357,5.357,0,0,1,3.116-1.886Zm-3.362,9.266L-5.7-13.2a19.033,19.033,0,0,1-1.722,2.05,10.585,10.585,0,0,1-1.722,1.64l-.9.574.328-2.05c.082-2.05,1.148-5.74,1.558-5.74.164,0,.41.328.738.574a7.663,7.663,0,0,0,1.476,1.312Zm31-17.958-.656-.574a1.96,1.96,0,0,0-.9-.574,65.078,65.078,0,0,0-2.624,7.38C18.9-16.81,18-14.35,16.6-11.562c-1.23,2.624-2.952,4.756-3.28,4.264A13.176,13.176,0,0,1,12.669-10c-.656-2.542-.9-12.382-.328-13.94.164-.656,0-.984-.9-1.8a2.89,2.89,0,0,0-1.886-.9.942.942,0,0,0-.9.492c-.82,1.64-1.148,11.316-.41,14.924.738,2.706,2.542,6.724,5.9,6.724a3.212,3.212,0,0,0,2.132-.738c3.362-2.87,8.2-20.664,9.184-24.764Zm7.954,1.8c0-1.148,1.476-3.936,3.116-6.15A11.231,11.231,0,0,0,38.417-38.7a1.941,1.941,0,0,0-1.476-1.476c-.738,0-3.2,2.952-4.428,5-1.148,2.378-1.148,3.69,0,4.838.574.492.9.738,1.148.738S33.989-29.848,33.989-30.34Zm10.5,11.808s-1.558,1.476-3.444,3.116c-5.166,4.756-9.512,7.708-12.3,8.118l-.984.328L28-9.594a29.3,29.3,0,0,1,2.624-9.922c.9-1.722,1.066-2.214,1.558-2.214h.492q.861,0-.246-1.722a3.505,3.505,0,0,0-3.362-1.968c-1.64.492-4.264,5.9-5.166,10.578a11.322,11.322,0,0,0,.328,6.806A9.687,9.687,0,0,0,27.757-4.51a7.805,7.805,0,0,0,2.05.246,6.8,6.8,0,0,0,2.624-.492c.574-.328,2.05-1.23,3.2-2.05,2.46-1.8,10.332-9.512,10.332-10.086C45.961-17.384,44.977-18.532,44.485-18.532ZM66.3-17.3l-.574-.574-1.476.9A106.221,106.221,0,0,1,47.6-8.2a12.128,12.128,0,0,1-2.624.41c-1.312,0-1.312-.164-1.066-2.3.164-.82.246-1.148.656-1.148.164,0,.246.082.41.082a3.836,3.836,0,0,0,1.312.164c1.394,0,2.706-.738,4.838-2.624,3.034-3.116,3.936-5.248,3.034-7.3a4.525,4.525,0,0,0-4.018-2.378,6.164,6.164,0,0,0-3.034.9c-4.346,2.46-7.38,8.774-6.232,13.038.738,2.46,3.28,4.756,5.9,4.756,1.394,0,3.116-.574,5.658-1.722,5.658-2.952,14.432-8.774,14.432-9.758A3.951,3.951,0,0,0,66.3-17.3ZM48.913-18.45a7.212,7.212,0,0,1,2.952-1.8.3.3,0,0,1,.246.082c.164.082,0,.738-.41,1.394a14.19,14.19,0,0,1-4.838,5.33c-.9.41-1.64.738-1.722.738C44.239-12.71,46.535-16.4,48.913-18.45Z" transform="translate(61.071 61.336)" fill="#fff"/>
</svg>
