<svg xmlns="http://www.w3.org/2000/svg" width="175.053" height="83.16" viewBox="0 0 175.053 83.16">
  <path id="路径_61" data-name="路径 61" d="M-52.02-59.67a9.411,9.411,0,0,0-3.51-.72,9.29,9.29,0,0,0-2.7.36,20.33,20.33,0,0,0-6.57,4.68l-.63.9-1.35-.9a4.179,4.179,0,0,0-2.61-.9c-1.71,0-3.51,1.17-5.4,3.6-9.72,12.51-13.14,37.53-6.03,45.54a9.945,9.945,0,0,0,7.47,3.6,9,9,0,0,0,3.87-.72c10.71-4.59,21.6-26.46,23.4-36.9C-44.46-49.95-46.89-56.97-52.02-59.67Zm.63,22.59A81.908,81.908,0,0,1-63.18-16.11c-2.61,3.24-6.93,7.2-9,8.37a11.4,11.4,0,0,1-2.79,1.08,4.565,4.565,0,0,1-.81.18c-.36,0-.54-.27-1.08-1.26-4.14-7.11-2.43-25.65,3.69-37.35,1.62-3.06,4.05-6.12,5.13-6.75.45-.18.36.27-.63,2.07-4.05,7.56-4.5,19.44-1.17,26.28.99,1.8,1.62,2.43,2.43,2.43.54,0,.54-.18-.27-1.89a24.127,24.127,0,0,1-1.8-11.7c.18-6.12,1.44-11.07,3.69-14.76l.63-1.17.99.81a1.737,1.737,0,0,0,.99.45c.63,0,.54-.99-.54-2.52-.27-.45-.18-.81,1.62-2.61,2.7-2.34,5.13-3.51,7.74-3.51a8.344,8.344,0,0,1,2.52.36C-48.51-55.89-48.15-46.26-51.39-37.08Zm42.75,20.7c-.72-1.26-2.07-1.26-3.33-1.26a33.229,33.229,0,0,0-7.38,1.08c-1.44.45-2.79.81-2.88.81a11.959,11.959,0,0,1,.45-1.98,13.825,13.825,0,0,0,.45-8.01c-.63-2.25-1.71-3.78-2.88-3.78-3.15,0-9.63,12.15-17.01,31.59a91.5,91.5,0,0,1-3.69,9.09l-.9,2.07.09-1.89c.99-8.1,5.22-27.99,9.54-34.29.63-1.17.72-1.35,1.26-1.35h.45a2.027,2.027,0,0,0,.63.09c.63,0,.63-.45-.18-1.53a7.756,7.756,0,0,0-3.69-2.25c-1.08,0-2.88,2.16-4.59,5.94-4.86,9.63-9,27.45-9,37.35,0,4.41.45,5.49,2.25,6.75a3.837,3.837,0,0,0,1.89.72,1.584,1.584,0,0,0,1.17-.54c1.08-1.26,4.32-9.63,6.84-18.27C-34.65-10.8-27.54-25.11-24.03-27a.979.979,0,0,1,.45-.09c.36,0,.27.45,0,2.16a22.55,22.55,0,0,1-6.57,14.31c-2.88,2.7-4.5,4.95-4.5,6.21a2.782,2.782,0,0,0,2.16,2.43c.72,0,5.13-4.32,6.66-7.02a6.63,6.63,0,0,1,3.42-3.24A20.859,20.859,0,0,1-11.7-15.12c1.89-.18,3.42-.18,3.42-.36C-8.37-15.57-8.46-16.11-8.64-16.38Zm37.8-31.23c-3.06-1.44-6.48-2.07-11.7-2.07A50.746,50.746,0,0,0,5.22-48.06c-1.26.27-2.52.45-2.52.45-.18-.18.27-1.44.81-3.06.72-2.07,1.26-2.97,1.53-2.97.54,0,.54-.36.63-1.8,0-1.8,0-2.07-.9-2.7a8.244,8.244,0,0,0-1.26-.99c-.81,0-2.61,3.24-5.04,9.09a41.951,41.951,0,0,1-1.89,4.41c-2.7,1.35-10.71,3.6-13.59,3.6-3.51,0-4.95-1.71-4.68-4.95a6.243,6.243,0,0,1,.45-2.34c.54-.72.36-.81-.18-1.35-.18-.18-.36-.36-.45-.36s-.27.18-.63.54c-1.62,1.44-1.17,5.58,1.08,8.01,1.62,1.8,3.24,2.43,5.94,2.43,2.61,0,3.6-.18,8.01-1.62,1.44-.45,2.79-.81,2.79-.63.09,0-.36,1.26-.81,2.88-3.6,9.99-7.11,22.59-7.11,33.21,0,6.21.72,8.46,3.24,10.26a4.119,4.119,0,0,0,2.16.72A4.379,4.379,0,0,0-4.41,3.6C-1.53,1.17,7.65-9.09,8.73-11.16c.18-.72.18-.99-.27-1.35-.36-.09-.63-.45-.81-.45a5.915,5.915,0,0,0-1.44,1.8C4.86-9.36-6.03,1.98-7.83,1.98c-.09,0-.18-.09-.27-.18C-9,.36-7.74-10.89-5.31-21.33c2.07-9.09,6.21-22.86,7.2-23.4a98.7,98.7,0,0,1,11.52-2.52,34.683,34.683,0,0,1,4.32-.18c4.86,0,9.54.72,12.06,1.89.54.36.9.63,1.17.63q.135,0,.27-.27C31.5-45.81,30.69-46.8,29.16-47.61ZM17.82-33.3c0-1.26,1.62-4.32,3.42-6.75a12.327,12.327,0,0,0,1.44-2.43,2.131,2.131,0,0,0-1.62-1.62c-.81,0-3.51,3.24-4.86,5.49-1.26,2.61-1.26,4.05,0,5.31.63.54.99.81,1.26.81S17.82-32.76,17.82-33.3ZM29.34-20.34s-1.71,1.62-3.78,3.42c-5.67,5.22-10.44,8.46-13.5,8.91l-1.08.36.27-2.88a32.16,32.16,0,0,1,2.88-10.89c.99-1.89,1.17-2.43,1.71-2.43h.54q.945,0-.27-1.89a3.847,3.847,0,0,0-3.69-2.16c-1.8.54-4.68,6.48-5.67,11.61-.63,3.15-.45,5.76.36,7.47a10.632,10.632,0,0,0,3.87,3.87,8.567,8.567,0,0,0,2.25.27,7.462,7.462,0,0,0,2.88-.54c.63-.36,2.25-1.35,3.51-2.25,2.7-1.98,11.34-10.44,11.34-11.07C30.96-19.08,29.88-20.34,29.34-20.34Zm23.49-.27c-.09-.36-.27-.45-.45-.45a2.183,2.183,0,0,0-1.08.45,66.412,66.412,0,0,1-8.73,2.79l-1.26.27.36-1.08c.81-4.23.27-6.57-1.98-8.55a4.668,4.668,0,0,0-3.15-1.53,4.556,4.556,0,0,0-3.06,1.44,7.853,7.853,0,0,0-1.8,2.07c-.27.81-.81,1.08-1.08,1.08a2.917,2.917,0,0,0-1.62,1.17c-2.07,1.89-3.51,6.03-3.51,9.63A7.913,7.913,0,0,0,28.98-6.3a5.461,5.461,0,0,0,2.7.81,4.29,4.29,0,0,0,1.8-.36c1.8-.9,4.5-4.5,6.21-7.83.72-1.44.99-1.62,2.16-1.89,3.33-.54,11.52-3.6,11.52-4.23Q53.37-20.07,52.83-20.61ZM39.06-25.74l-.27,1.62a17.475,17.475,0,0,1-1.17,4.14,6.427,6.427,0,0,1-1.26,2.61s-.63-.18-1.08-.36c-1.53-.45-2.16-1.26-2.16-2.25.18-.54.27-.63.72-.63h.45c1.26,0,1.44-.45.45-1.53-.45-.72-.45-.81,0-1.53.99-1.08,2.43-2.07,3.42-2.07ZM35.37-15.57l-.81,1.08a20.89,20.89,0,0,1-1.89,2.25,11.617,11.617,0,0,1-1.89,1.8l-.99.63.36-2.25c.09-2.25,1.26-6.3,1.71-6.3.18,0,.45.36.81.63a8.411,8.411,0,0,0,1.62,1.44Zm54.45-3.06a.778.778,0,0,0-.54-.27c-.36,0-.81.45-2.25,1.62-1.26.9-4.32,3.69-6.84,5.85-5.31,4.68-7.11,5.85-8.55,5.85-.9,0-1.08,0-1.26-1.44-.63-4.05,1.17-10.98,5.13-21.06,1.44-3.69,2.7-7.02,2.7-7.38,0-.9-1.08-2.52-1.89-2.52s-3.51,1.89-5.94,4.14c-2.7,2.61-5.76,6.39-10.26,12.69-3.15,4.5-7.65,10.26-8.46,10.53-.54.36-.18-.81,1.26-5.4.81-2.07,1.8-4.68,2.25-5.67.63-1.26.99-1.62,1.35-1.62.09,0,.18.09.27.09h.27c.36,0,.36-.18.18-.72-.27-.9-2.25-2.88-2.88-2.88-2.07,0-7.02,10.8-7.56,16.38,0,1.98,0,2.43.63,3.42A4.118,4.118,0,0,0,51.3-4.95c.81-.18,2.25-1.98,7.56-9.45A155.424,155.424,0,0,1,71.64-30.15l3.42-3.51-1.62,3.33c-3.87,7.74-5.49,13.5-5.58,18.81,0,4.32.81,6.03,3.15,7.65a3.73,3.73,0,0,0,1.8.54c3.78,0,17.64-13.95,17.64-14.31A3.4,3.4,0,0,0,89.82-18.63Z" transform="translate(84.603 60.39)" fill="#7b491a"/>
</svg>
