<svg xmlns="http://www.w3.org/2000/svg" width="163.379" height="67.95" viewBox="0 0 163.379 67.95">
  <path id="路径_62" data-name="路径 62" d="M-53.865-37.17a161.408,161.408,0,0,0-7.2,18.27c-1.26,3.87-2.43,6.57-2.43,6.12,0-1.62,1.35-10.62,2.25-15.39a149.828,149.828,0,0,1,8.37-27.63c.81-1.62.99-2.07,1.44-2.07a2.289,2.289,0,0,1,.63.18,1.757,1.757,0,0,0,.63.09c.45,0,.54-.18.54-.54a7.363,7.363,0,0,0-2.25-3.69,3,3,0,0,0-1.89-.9,2,2,0,0,0-1.53.9c-2.07,2.07-6.39,12.33-9,21.33a163.653,163.653,0,0,0-4.14,20.16c-.81,5.58-.81,13.32,0,15.57.45,2.07,2.16,4.05,4.41,4.05,1.08,0,1.26-1.17,2.79-7.29,3.69-14.22,11.7-36,22.5-46.8,3.24-3.24,6.12-5.04,8.1-5.04a2.491,2.491,0,0,1,1.17.27c.63.45.63.63.45,2.52-.54,9.72-12.15,26.55-20.52,31.14l-1.53.9-.36-.81a5.144,5.144,0,0,0-.99-1.44,1.521,1.521,0,0,0-.45-.18c-.18,0-.27.09-.45.36a3.448,3.448,0,0,0,.45,4.23,2.793,2.793,0,0,0,2.43,1.08c4.32,0,12.33-6.57,17.46-14.31,5.76-8.64,8.19-16.65,6.57-22.05a7.633,7.633,0,0,0-2.07-3.42c-1.44-1.44-1.62-1.62-3.24-1.62C-37.845-63.18-45.945-53.55-53.865-37.17Zm51.39,16.56c-.09-.36-.27-.45-.45-.45A2.183,2.183,0,0,0-4-20.61a66.412,66.412,0,0,1-8.73,2.79l-1.26.27.36-1.08c.81-4.23.27-6.57-1.98-8.55a4.668,4.668,0,0,0-3.15-1.53,4.556,4.556,0,0,0-3.06,1.44,7.853,7.853,0,0,0-1.8,2.07c-.27.81-.81,1.08-1.08,1.08a2.917,2.917,0,0,0-1.62,1.17c-2.07,1.89-3.51,6.03-3.51,9.63a7.913,7.913,0,0,0,3.51,7.02,5.461,5.461,0,0,0,2.7.81,4.29,4.29,0,0,0,1.8-.36c1.8-.9,4.5-4.5,6.21-7.83.72-1.44.99-1.62,2.16-1.89,3.33-.54,11.52-3.6,11.52-4.23Q-1.935-20.07-2.475-20.61Zm-13.77-5.13-.27,1.62a17.475,17.475,0,0,1-1.17,4.14,6.427,6.427,0,0,1-1.26,2.61s-.63-.18-1.08-.36c-1.53-.45-2.16-1.26-2.16-2.25.18-.54.27-.63.72-.63h.45c1.26,0,1.44-.45.45-1.53-.45-.72-.45-.81,0-1.53.99-1.08,2.43-2.07,3.42-2.07Zm-3.69,10.17-.81,1.08a20.89,20.89,0,0,1-1.89,2.25,11.617,11.617,0,0,1-1.89,1.8l-.99.63.36-2.25c.09-2.25,1.26-6.3,1.71-6.3.18,0,.45.36.81.63a8.411,8.411,0,0,0,1.62,1.44ZM3.735-33.3c0-1.26,1.62-4.32,3.42-6.75A12.327,12.327,0,0,0,8.6-42.48a2.131,2.131,0,0,0-1.62-1.62c-.81,0-3.51,3.24-4.86,5.49-1.26,2.61-1.26,4.05,0,5.31.63.54.99.81,1.26.81S3.735-32.76,3.735-33.3Zm11.52,12.96s-1.71,1.62-3.78,3.42c-5.67,5.22-10.44,8.46-13.5,8.91l-1.08.36.27-2.88A32.16,32.16,0,0,1,.045-21.42c.99-1.89,1.17-2.43,1.71-2.43H2.3q.945,0-.27-1.89a3.847,3.847,0,0,0-3.69-2.16c-1.8.54-4.68,6.48-5.67,11.61-.63,3.15-.45,5.76.36,7.47A10.632,10.632,0,0,0-3.1-4.95a8.567,8.567,0,0,0,2.25.27,7.462,7.462,0,0,0,2.88-.54c.63-.36,2.25-1.35,3.51-2.25,2.7-1.98,11.34-10.44,11.34-11.07C16.875-19.08,15.8-20.34,15.255-20.34Zm38.52,1.71a.778.778,0,0,0-.54-.27c-.36,0-.81.45-2.25,1.62-1.26.9-4.32,3.69-6.84,5.85-5.31,4.68-7.11,5.85-8.55,5.85-.9,0-1.08,0-1.26-1.44-.63-4.05,1.17-10.98,5.13-21.06,1.44-3.69,2.7-7.02,2.7-7.38,0-.9-1.08-2.52-1.89-2.52s-3.51,1.89-5.94,4.14c-2.7,2.61-5.76,6.39-10.26,12.69-3.15,4.5-7.65,10.26-8.46,10.53-.54.36-.18-.81,1.26-5.4.81-2.07,1.8-4.68,2.25-5.67.63-1.26.99-1.62,1.35-1.62.09,0,.18.09.27.09h.27c.36,0,.36-.18.18-.72-.27-.9-2.25-2.88-2.88-2.88-2.07,0-7.02,10.8-7.56,16.38,0,1.98,0,2.43.63,3.42a4.118,4.118,0,0,0,3.87,2.07c.81-.18,2.25-1.98,7.56-9.45A155.423,155.423,0,0,1,35.6-30.15l3.42-3.51L37.4-30.33c-3.87,7.74-5.49,13.5-5.58,18.81,0,4.32.81,6.03,3.15,7.65a3.73,3.73,0,0,0,1.8.54c3.78,0,17.64-13.95,17.64-14.31A3.4,3.4,0,0,0,53.775-18.63Zm38.43-28.98c-3.06-1.44-6.48-2.07-11.7-2.07a50.746,50.746,0,0,0-12.24,1.62c-1.26.27-2.52.45-2.52.45-.18-.18.27-1.44.81-3.06.72-2.07,1.26-2.97,1.53-2.97.54,0,.54-.36.63-1.8,0-1.8,0-2.07-.9-2.7a8.244,8.244,0,0,0-1.26-.99c-.81,0-2.61,3.24-5.04,9.09a41.95,41.95,0,0,1-1.89,4.41c-2.7,1.35-10.71,3.6-13.59,3.6-3.51,0-4.95-1.71-4.68-4.95a6.243,6.243,0,0,1,.45-2.34c.54-.72.36-.81-.18-1.35-.18-.18-.36-.36-.45-.36s-.27.18-.63.54c-1.62,1.44-1.17,5.58,1.08,8.01,1.62,1.8,3.24,2.43,5.94,2.43,2.61,0,3.6-.18,8.01-1.62,1.44-.45,2.79-.81,2.79-.63.09,0-.36,1.26-.81,2.88-3.6,9.99-7.11,22.59-7.11,33.21,0,6.21.72,8.46,3.24,10.26a4.119,4.119,0,0,0,2.16.72,4.379,4.379,0,0,0,2.79-1.17c2.88-2.43,12.06-12.69,13.14-14.76.18-.72.18-.99-.27-1.35-.36-.09-.63-.45-.81-.45a5.915,5.915,0,0,0-1.44,1.8c-1.35,1.8-12.24,13.14-14.04,13.14-.09,0-.18-.09-.27-.18-.9-1.44.36-12.69,2.79-23.13,2.07-9.09,6.21-22.86,7.2-23.4a98.7,98.7,0,0,1,11.52-2.52,34.683,34.683,0,0,1,4.32-.18c4.86,0,9.54.72,12.06,1.89.54.36.9.63,1.17.63q.135,0,.27-.27C94.545-45.81,93.735-46.8,92.205-47.61Z" transform="translate(69.052 63.18)" fill="#7b491a"/>
</svg>
